<mxfile host="app.diagrams.net" agent="Mozilla/5.0 (Windows NT 10.0; Win64; x64) AppleWebKit/537.36 (KHTML, like Gecko) Chrome/141.0.0.0 Safari/537.36" version="28.2.7">
  <diagram name="PÃ¡gina-1" id="XnDTNN3KB046r1GPcvjK">
    <mxGraphModel dx="2253" dy="1946" grid="1" gridSize="10" guides="1" tooltips="1" connect="1" arrows="1" fold="1" page="1" pageScale="1" pageWidth="827" pageHeight="1169" math="0" shadow="0">
      <root>
        <mxCell id="0" />
        <mxCell id="1" parent="0" />
        <mxCell id="f-fRc35Enofzeq2nU37d-5" value="" style="edgeStyle=orthogonalEdgeStyle;html=1;verticalAlign=bottom;endArrow=open;endSize=8;strokeColor=#ff0000;rounded=0;exitX=0.5;exitY=1;exitDx=0;exitDy=0;" edge="1" parent="1" source="f-fRc35Enofzeq2nU37d-92" target="f-fRc35Enofzeq2nU37d-7">
          <mxGeometry relative="1" as="geometry">
            <mxPoint x="-230" y="-10" as="targetPoint" />
            <mxPoint x="-285" y="-330" as="sourcePoint" />
          </mxGeometry>
        </mxCell>
        <mxCell id="f-fRc35Enofzeq2nU37d-6" value="" style="edgeStyle=orthogonalEdgeStyle;rounded=0;orthogonalLoop=1;jettySize=auto;html=1;" edge="1" parent="1" source="f-fRc35Enofzeq2nU37d-7" target="f-fRc35Enofzeq2nU37d-9">
          <mxGeometry relative="1" as="geometry" />
        </mxCell>
        <mxCell id="f-fRc35Enofzeq2nU37d-7" value="solicitar produtor" style="rounded=1;whiteSpace=wrap;html=1;arcSize=40;fontColor=#000000;fillColor=#ffffc0;strokeColor=#ff0000;" vertex="1" parent="1">
          <mxGeometry x="-600" y="-530" width="120" height="40" as="geometry" />
        </mxCell>
        <mxCell id="f-fRc35Enofzeq2nU37d-8" value="" style="edgeStyle=orthogonalEdgeStyle;rounded=0;orthogonalLoop=1;jettySize=auto;html=1;" edge="1" parent="1" source="f-fRc35Enofzeq2nU37d-9" target="f-fRc35Enofzeq2nU37d-11">
          <mxGeometry relative="1" as="geometry" />
        </mxCell>
        <mxCell id="f-fRc35Enofzeq2nU37d-9" value="verificar disponibilidade" style="rounded=1;whiteSpace=wrap;html=1;arcSize=40;fontColor=#000000;fillColor=#ffffc0;strokeColor=#ff0000;" vertex="1" parent="1">
          <mxGeometry x="-370" y="-560" width="120" height="40" as="geometry" />
        </mxCell>
        <mxCell id="f-fRc35Enofzeq2nU37d-10" value="" style="edgeStyle=orthogonalEdgeStyle;rounded=0;orthogonalLoop=1;jettySize=auto;html=1;" edge="1" parent="1" source="f-fRc35Enofzeq2nU37d-11" target="f-fRc35Enofzeq2nU37d-22">
          <mxGeometry relative="1" as="geometry" />
        </mxCell>
        <mxCell id="f-fRc35Enofzeq2nU37d-11" value="disponivel?" style="rhombus;whiteSpace=wrap;html=1;fontColor=#000000;fillColor=#ffffc0;strokeColor=#ff0000;" vertex="1" parent="1">
          <mxGeometry x="-140" y="-340" width="80" height="40" as="geometry" />
        </mxCell>
        <mxCell id="f-fRc35Enofzeq2nU37d-12" value="" style="edgeStyle=orthogonalEdgeStyle;html=1;align=left;verticalAlign=bottom;endArrow=open;endSize=8;strokeColor=#ff0000;rounded=0;" edge="1" parent="1" source="f-fRc35Enofzeq2nU37d-11" target="f-fRc35Enofzeq2nU37d-13">
          <mxGeometry x="-1" y="14" relative="1" as="geometry">
            <mxPoint x="340" y="80" as="targetPoint" />
            <mxPoint x="-10" y="4" as="offset" />
          </mxGeometry>
        </mxCell>
        <mxCell id="f-fRc35Enofzeq2nU37d-13" value="" style="ellipse;html=1;shape=endState;fillColor=#000000;strokeColor=#ff0000;" vertex="1" parent="1">
          <mxGeometry x="290" y="-165" width="30" height="30" as="geometry" />
        </mxCell>
        <mxCell id="f-fRc35Enofzeq2nU37d-14" value="nao disponivel" style="text;html=1;whiteSpace=wrap;strokeColor=none;fillColor=none;align=center;verticalAlign=middle;rounded=0;" vertex="1" parent="1">
          <mxGeometry x="170" y="-180" width="80" height="30" as="geometry" />
        </mxCell>
        <mxCell id="f-fRc35Enofzeq2nU37d-15" value="pago?" style="rhombus;whiteSpace=wrap;html=1;fontColor=#000000;fillColor=#ffffc0;strokeColor=#ff0000;" vertex="1" parent="1">
          <mxGeometry x="70" width="80" height="35" as="geometry" />
        </mxCell>
        <mxCell id="f-fRc35Enofzeq2nU37d-16" value="cancelar pedido" style="edgeStyle=orthogonalEdgeStyle;html=1;align=left;verticalAlign=bottom;endArrow=open;endSize=8;strokeColor=#ff0000;rounded=0;exitX=0.875;exitY=0.571;exitDx=0;exitDy=0;exitPerimeter=0;" edge="1" parent="1" source="f-fRc35Enofzeq2nU37d-15" target="f-fRc35Enofzeq2nU37d-19">
          <mxGeometry x="-0.347" y="10" relative="1" as="geometry">
            <mxPoint x="330" y="170" as="targetPoint" />
            <mxPoint x="180" y="17.5" as="sourcePoint" />
            <mxPoint as="offset" />
          </mxGeometry>
        </mxCell>
        <mxCell id="f-fRc35Enofzeq2nU37d-17" value="" style="edgeStyle=orthogonalEdgeStyle;html=1;align=left;verticalAlign=top;endArrow=open;endSize=8;strokeColor=#ff0000;rounded=0;entryX=0;entryY=0.5;entryDx=0;entryDy=0;exitX=0.5;exitY=1;exitDx=0;exitDy=0;" edge="1" parent="1" source="f-fRc35Enofzeq2nU37d-15" target="f-fRc35Enofzeq2nU37d-25">
          <mxGeometry x="-1" y="-20" relative="1" as="geometry">
            <mxPoint x="440" y="287.5" as="targetPoint" />
            <mxPoint x="110" y="103" as="sourcePoint" />
            <Array as="points">
              <mxPoint x="110" y="120" />
              <mxPoint x="460" y="120" />
            </Array>
            <mxPoint x="20" y="-20" as="offset" />
          </mxGeometry>
        </mxCell>
        <mxCell id="f-fRc35Enofzeq2nU37d-18" value="efetuar pagamento" style="edgeLabel;html=1;align=center;verticalAlign=middle;resizable=0;points=[];" vertex="1" connectable="0" parent="f-fRc35Enofzeq2nU37d-17">
          <mxGeometry x="-0.3074" y="-1" relative="1" as="geometry">
            <mxPoint x="63" y="-11" as="offset" />
          </mxGeometry>
        </mxCell>
        <mxCell id="f-fRc35Enofzeq2nU37d-19" value="" style="ellipse;html=1;shape=endState;fillColor=#000000;strokeColor=#ff0000;" vertex="1" parent="1">
          <mxGeometry x="260" y="2.5" width="30" height="30" as="geometry" />
        </mxCell>
        <mxCell id="f-fRc35Enofzeq2nU37d-20" value="no" style="text;html=1;whiteSpace=wrap;strokeColor=none;fillColor=none;align=center;verticalAlign=middle;rounded=0;" vertex="1" parent="1">
          <mxGeometry x="130" y="-20" width="60" height="30" as="geometry" />
        </mxCell>
        <mxCell id="f-fRc35Enofzeq2nU37d-21" value="yes" style="text;html=1;whiteSpace=wrap;strokeColor=none;fillColor=none;align=center;verticalAlign=middle;rounded=0;" vertex="1" parent="1">
          <mxGeometry x="110" y="60" width="60" height="30" as="geometry" />
        </mxCell>
        <mxCell id="f-fRc35Enofzeq2nU37d-22" value="emitir pedido" style="rounded=1;whiteSpace=wrap;html=1;arcSize=40;fontColor=#000000;fillColor=#ffffc0;strokeColor=#ff0000;" vertex="1" parent="1">
          <mxGeometry x="50" y="-100" width="120" height="40" as="geometry" />
        </mxCell>
        <mxCell id="f-fRc35Enofzeq2nU37d-23" value="" style="edgeStyle=orthogonalEdgeStyle;html=1;verticalAlign=bottom;endArrow=open;endSize=8;strokeColor=#ff0000;rounded=0;" edge="1" parent="1">
          <mxGeometry relative="1" as="geometry">
            <mxPoint x="110" as="targetPoint" />
            <mxPoint x="120" y="-60" as="sourcePoint" />
          </mxGeometry>
        </mxCell>
        <mxCell id="f-fRc35Enofzeq2nU37d-24" value="" style="edgeStyle=orthogonalEdgeStyle;rounded=0;orthogonalLoop=1;jettySize=auto;html=1;" edge="1" parent="1" source="f-fRc35Enofzeq2nU37d-25" target="f-fRc35Enofzeq2nU37d-28">
          <mxGeometry relative="1" as="geometry" />
        </mxCell>
        <mxCell id="f-fRc35Enofzeq2nU37d-25" value="efetuar recebimento" style="rounded=1;whiteSpace=wrap;html=1;arcSize=40;fontColor=#000000;fillColor=#ffffc0;strokeColor=#ff0000;" vertex="1" parent="1">
          <mxGeometry x="430" y="100" width="120" height="40" as="geometry" />
        </mxCell>
        <mxCell id="f-fRc35Enofzeq2nU37d-26" value="yes" style="text;html=1;whiteSpace=wrap;strokeColor=none;fillColor=none;align=center;verticalAlign=middle;rounded=0;" vertex="1" parent="1">
          <mxGeometry x="100" y="-120" width="60" height="30" as="geometry" />
        </mxCell>
        <mxCell id="f-fRc35Enofzeq2nU37d-27" value="no&lt;div&gt;&lt;br&gt;&lt;/div&gt;" style="text;html=1;whiteSpace=wrap;strokeColor=none;fillColor=none;align=center;verticalAlign=middle;rounded=0;" vertex="1" parent="1">
          <mxGeometry x="120" y="-190" width="60" height="30" as="geometry" />
        </mxCell>
        <mxCell id="f-fRc35Enofzeq2nU37d-28" value="" style="shape=line;html=1;strokeWidth=6;strokeColor=#ff0000;" vertex="1" parent="1">
          <mxGeometry x="390" y="410" width="200" height="10" as="geometry" />
        </mxCell>
        <mxCell id="f-fRc35Enofzeq2nU37d-29" value="" style="edgeStyle=orthogonalEdgeStyle;html=1;verticalAlign=bottom;endArrow=open;endSize=8;strokeColor=#ff0000;rounded=0;" edge="1" parent="1" source="f-fRc35Enofzeq2nU37d-28" target="f-fRc35Enofzeq2nU37d-31">
          <mxGeometry relative="1" as="geometry">
            <mxPoint x="490" y="490" as="targetPoint" />
            <Array as="points">
              <mxPoint x="560" y="440" />
              <mxPoint x="560" y="440" />
            </Array>
          </mxGeometry>
        </mxCell>
        <mxCell id="f-fRc35Enofzeq2nU37d-30" value="" style="edgeStyle=orthogonalEdgeStyle;rounded=0;orthogonalLoop=1;jettySize=auto;html=1;" edge="1" parent="1" source="f-fRc35Enofzeq2nU37d-31" target="f-fRc35Enofzeq2nU37d-35">
          <mxGeometry relative="1" as="geometry" />
        </mxCell>
        <mxCell id="f-fRc35Enofzeq2nU37d-31" value="baixar estoque" style="rounded=1;whiteSpace=wrap;html=1;arcSize=40;fontColor=#000000;fillColor=#ffffc0;strokeColor=#ff0000;" vertex="1" parent="1">
          <mxGeometry x="500" y="470" width="120" height="40" as="geometry" />
        </mxCell>
        <mxCell id="f-fRc35Enofzeq2nU37d-32" value="" style="edgeStyle=orthogonalEdgeStyle;html=1;verticalAlign=bottom;endArrow=open;endSize=8;strokeColor=#ff0000;rounded=0;" edge="1" parent="1" target="f-fRc35Enofzeq2nU37d-34">
          <mxGeometry relative="1" as="geometry">
            <mxPoint x="420" y="470" as="targetPoint" />
            <mxPoint x="420" y="420" as="sourcePoint" />
          </mxGeometry>
        </mxCell>
        <mxCell id="f-fRc35Enofzeq2nU37d-33" value="" style="edgeStyle=orthogonalEdgeStyle;rounded=0;orthogonalLoop=1;jettySize=auto;html=1;" edge="1" parent="1" source="f-fRc35Enofzeq2nU37d-34" target="f-fRc35Enofzeq2nU37d-35">
          <mxGeometry relative="1" as="geometry" />
        </mxCell>
        <mxCell id="f-fRc35Enofzeq2nU37d-34" value="emitir cupom fiscal" style="rounded=1;whiteSpace=wrap;html=1;arcSize=40;fontColor=#000000;fillColor=#ffffc0;strokeColor=#ff0000;" vertex="1" parent="1">
          <mxGeometry x="360" y="470" width="120" height="40" as="geometry" />
        </mxCell>
        <mxCell id="f-fRc35Enofzeq2nU37d-35" value="" style="shape=line;html=1;strokeWidth=6;strokeColor=#ff0000;" vertex="1" parent="1">
          <mxGeometry x="390" y="570" width="200" height="10" as="geometry" />
        </mxCell>
        <mxCell id="f-fRc35Enofzeq2nU37d-36" value="" style="edgeStyle=orthogonalEdgeStyle;html=1;verticalAlign=bottom;endArrow=open;endSize=8;strokeColor=#ff0000;rounded=0;" edge="1" parent="1" source="f-fRc35Enofzeq2nU37d-35" target="f-fRc35Enofzeq2nU37d-38">
          <mxGeometry relative="1" as="geometry">
            <mxPoint x="490" y="650" as="targetPoint" />
          </mxGeometry>
        </mxCell>
        <mxCell id="f-fRc35Enofzeq2nU37d-37" value="" style="edgeStyle=orthogonalEdgeStyle;rounded=0;orthogonalLoop=1;jettySize=auto;html=1;" edge="1" parent="1" source="f-fRc35Enofzeq2nU37d-38" target="f-fRc35Enofzeq2nU37d-40">
          <mxGeometry relative="1" as="geometry" />
        </mxCell>
        <mxCell id="f-fRc35Enofzeq2nU37d-38" value="entregar produto" style="rounded=1;whiteSpace=wrap;html=1;arcSize=40;fontColor=#000000;fillColor=#ffffc0;strokeColor=#ff0000;" vertex="1" parent="1">
          <mxGeometry x="430" y="630" width="120" height="40" as="geometry" />
        </mxCell>
        <mxCell id="f-fRc35Enofzeq2nU37d-39" value="" style="edgeStyle=orthogonalEdgeStyle;rounded=0;orthogonalLoop=1;jettySize=auto;html=1;" edge="1" parent="1" source="f-fRc35Enofzeq2nU37d-40" target="f-fRc35Enofzeq2nU37d-41">
          <mxGeometry relative="1" as="geometry" />
        </mxCell>
        <mxCell id="f-fRc35Enofzeq2nU37d-40" value="receber produtos" style="rounded=1;whiteSpace=wrap;html=1;arcSize=40;fontColor=#000000;fillColor=#ffffc0;strokeColor=#ff0000;" vertex="1" parent="1">
          <mxGeometry x="-260" y="630" width="120" height="40" as="geometry" />
        </mxCell>
        <mxCell id="f-fRc35Enofzeq2nU37d-41" value="" style="ellipse;html=1;shape=endState;fillColor=#000000;strokeColor=#ff0000;" vertex="1" parent="1">
          <mxGeometry x="-400" y="630" width="30" height="30" as="geometry" />
        </mxCell>
        <mxCell id="f-fRc35Enofzeq2nU37d-42" value="" style="edgeStyle=orthogonalEdgeStyle;rounded=0;orthogonalLoop=1;jettySize=auto;html=1;" edge="1" parent="1" source="f-fRc35Enofzeq2nU37d-43" target="f-fRc35Enofzeq2nU37d-44">
          <mxGeometry relative="1" as="geometry" />
        </mxCell>
        <mxCell id="f-fRc35Enofzeq2nU37d-43" value="adicionar adoÃ§Ã£o" style="rounded=1;whiteSpace=wrap;html=1;arcSize=40;fontColor=#000000;fillColor=#ffffc0;strokeColor=#ff0000;" vertex="1" parent="1">
          <mxGeometry x="-780" y="-350" width="120" height="40" as="geometry" />
        </mxCell>
        <mxCell id="f-fRc35Enofzeq2nU37d-44" value="disponivel?" style="rhombus;whiteSpace=wrap;html=1;fontColor=#000000;fillColor=#ffffc0;strokeColor=#ff0000;" vertex="1" parent="1">
          <mxGeometry x="-630" y="-360" width="80" height="40" as="geometry" />
        </mxCell>
        <mxCell id="f-fRc35Enofzeq2nU37d-45" value="no" style="edgeStyle=orthogonalEdgeStyle;html=1;align=left;verticalAlign=bottom;endArrow=open;endSize=8;strokeColor=#ff0000;rounded=0;" edge="1" parent="1" source="f-fRc35Enofzeq2nU37d-44">
          <mxGeometry x="-1" relative="1" as="geometry">
            <mxPoint x="-220" y="-430" as="targetPoint" />
            <Array as="points">
              <mxPoint x="-360" y="-340" />
              <mxPoint x="-360" y="-430" />
            </Array>
          </mxGeometry>
        </mxCell>
        <mxCell id="f-fRc35Enofzeq2nU37d-46" value="yes" style="edgeStyle=orthogonalEdgeStyle;html=1;align=left;verticalAlign=top;endArrow=open;endSize=8;strokeColor=#ff0000;rounded=0;exitX=0.5;exitY=1;exitDx=0;exitDy=0;" edge="1" parent="1" source="f-fRc35Enofzeq2nU37d-44">
          <mxGeometry x="-1" relative="1" as="geometry">
            <mxPoint x="-450" y="-240" as="targetPoint" />
            <Array as="points">
              <mxPoint x="-590" y="-280" />
              <mxPoint x="-510" y="-280" />
              <mxPoint x="-510" y="-240" />
            </Array>
          </mxGeometry>
        </mxCell>
        <mxCell id="f-fRc35Enofzeq2nU37d-47" value="adoÃ§Ã£o indisponivel" style="text;html=1;whiteSpace=wrap;strokeColor=none;fillColor=none;align=center;verticalAlign=middle;rounded=0;" vertex="1" parent="1">
          <mxGeometry x="-200" y="-450" width="80" height="30" as="geometry" />
        </mxCell>
        <mxCell id="f-fRc35Enofzeq2nU37d-50" value="receber adoÃ§Ã£o" style="rounded=1;whiteSpace=wrap;html=1;arcSize=40;fontColor=#000000;fillColor=#ffffc0;strokeColor=#ff0000;" vertex="1" parent="1">
          <mxGeometry x="-440" y="-265" width="120" height="40" as="geometry" />
        </mxCell>
        <mxCell id="f-fRc35Enofzeq2nU37d-52" value="usuario" style="text;html=1;whiteSpace=wrap;strokeColor=none;fillColor=none;align=center;verticalAlign=middle;rounded=0;" vertex="1" parent="1">
          <mxGeometry x="-310" y="-450" width="60" height="30" as="geometry" />
        </mxCell>
        <mxCell id="f-fRc35Enofzeq2nU37d-97" style="edgeStyle=orthogonalEdgeStyle;rounded=0;orthogonalLoop=1;jettySize=auto;html=1;exitX=1;exitY=0.5;exitDx=0;exitDy=0;" edge="1" parent="1" source="f-fRc35Enofzeq2nU37d-55" target="f-fRc35Enofzeq2nU37d-43">
          <mxGeometry relative="1" as="geometry" />
        </mxCell>
        <mxCell id="f-fRc35Enofzeq2nU37d-55" value="solicitar animais para adoÃ§ao" style="rounded=1;whiteSpace=wrap;html=1;arcSize=40;fontColor=#000000;fillColor=#ffffc0;strokeColor=#ff0000;" vertex="1" parent="1">
          <mxGeometry x="-790" y="-510" width="120" height="40" as="geometry" />
        </mxCell>
        <mxCell id="f-fRc35Enofzeq2nU37d-56" value="solicitar consulta" style="rounded=1;whiteSpace=wrap;html=1;arcSize=40;fontColor=#000000;fillColor=#ffffc0;strokeColor=#ff0000;" vertex="1" parent="1">
          <mxGeometry x="-640" y="-60" width="120" height="40" as="geometry" />
        </mxCell>
        <mxCell id="f-fRc35Enofzeq2nU37d-58" value="" style="ellipse;html=1;shape=startState;fillColor=#000000;strokeColor=#ff0000;" vertex="1" parent="1">
          <mxGeometry x="-730" y="-1160" width="30" height="30" as="geometry" />
        </mxCell>
        <mxCell id="f-fRc35Enofzeq2nU37d-59" value="" style="edgeStyle=orthogonalEdgeStyle;html=1;verticalAlign=bottom;endArrow=open;endSize=8;strokeColor=#ff0000;rounded=0;" edge="1" parent="1" source="f-fRc35Enofzeq2nU37d-58">
          <mxGeometry relative="1" as="geometry">
            <mxPoint x="-715" y="-1070" as="targetPoint" />
          </mxGeometry>
        </mxCell>
        <mxCell id="f-fRc35Enofzeq2nU37d-60" value="realizar cadastro" style="rounded=1;whiteSpace=wrap;html=1;arcSize=40;fontColor=#000000;fillColor=#ffffc0;strokeColor=#ff0000;" vertex="1" parent="1">
          <mxGeometry x="-560" y="-1020" width="120" height="40" as="geometry" />
        </mxCell>
        <mxCell id="f-fRc35Enofzeq2nU37d-61" value="" style="edgeStyle=orthogonalEdgeStyle;html=1;verticalAlign=bottom;endArrow=open;endSize=8;strokeColor=#ff0000;rounded=0;exitX=0.5;exitY=1;exitDx=0;exitDy=0;" edge="1" parent="1" source="f-fRc35Enofzeq2nU37d-60">
          <mxGeometry relative="1" as="geometry">
            <mxPoint x="-610" y="-850" as="targetPoint" />
            <Array as="points">
              <mxPoint x="-500" y="-880" />
              <mxPoint x="-590" y="-880" />
            </Array>
          </mxGeometry>
        </mxCell>
        <mxCell id="f-fRc35Enofzeq2nU37d-62" value="cadastrado?" style="rhombus;whiteSpace=wrap;html=1;fontColor=#000000;fillColor=#ffffc0;strokeColor=#ff0000;" vertex="1" parent="1">
          <mxGeometry x="-755" y="-1070" width="85" height="50" as="geometry" />
        </mxCell>
        <mxCell id="f-fRc35Enofzeq2nU37d-63" value="no" style="edgeStyle=orthogonalEdgeStyle;html=1;align=left;verticalAlign=bottom;endArrow=open;endSize=8;strokeColor=#ff0000;rounded=0;entryX=0;entryY=0.5;entryDx=0;entryDy=0;" edge="1" parent="1" source="f-fRc35Enofzeq2nU37d-62" target="f-fRc35Enofzeq2nU37d-60">
          <mxGeometry x="-0.6364" y="10" relative="1" as="geometry">
            <mxPoint x="-570" y="-1050" as="targetPoint" />
            <Array as="points">
              <mxPoint x="-610" y="-1040" />
              <mxPoint x="-610" y="-1000" />
            </Array>
            <mxPoint as="offset" />
          </mxGeometry>
        </mxCell>
        <mxCell id="f-fRc35Enofzeq2nU37d-64" value="yes" style="edgeStyle=orthogonalEdgeStyle;html=1;align=left;verticalAlign=top;endArrow=open;endSize=8;strokeColor=#ff0000;rounded=0;" edge="1" parent="1">
          <mxGeometry x="-0.2715" y="10" relative="1" as="geometry">
            <mxPoint x="-710" y="-930" as="targetPoint" />
            <mxPoint x="-710.5" y="-980" as="sourcePoint" />
            <Array as="points">
              <mxPoint x="-710.5" y="-1010" />
            </Array>
            <mxPoint as="offset" />
          </mxGeometry>
        </mxCell>
        <mxCell id="f-fRc35Enofzeq2nU37d-65" value="Usuario Entra" style="rounded=1;whiteSpace=wrap;html=1;arcSize=40;fontColor=#000000;fillColor=#ffffc0;strokeColor=#ff0000;" vertex="1" parent="1">
          <mxGeometry x="-760" y="-880" width="120" height="40" as="geometry" />
        </mxCell>
        <mxCell id="f-fRc35Enofzeq2nU37d-89" style="edgeStyle=orthogonalEdgeStyle;rounded=0;orthogonalLoop=1;jettySize=auto;html=1;exitX=0;exitY=0.5;exitDx=0;exitDy=0;exitPerimeter=0;" edge="1" parent="1">
          <mxGeometry relative="1" as="geometry">
            <mxPoint x="-770" y="-815" as="sourcePoint" />
            <mxPoint x="-770" y="-690" as="targetPoint" />
            <Array as="points">
              <mxPoint x="-770" y="-690" />
            </Array>
          </mxGeometry>
        </mxCell>
        <mxCell id="f-fRc35Enofzeq2nU37d-91" style="edgeStyle=orthogonalEdgeStyle;rounded=0;orthogonalLoop=1;jettySize=auto;html=1;exitX=0.25;exitY=0.5;exitDx=0;exitDy=0;exitPerimeter=0;" edge="1" parent="1" source="f-fRc35Enofzeq2nU37d-71" target="f-fRc35Enofzeq2nU37d-92">
          <mxGeometry relative="1" as="geometry">
            <mxPoint x="-580" y="-700" as="targetPoint" />
          </mxGeometry>
        </mxCell>
        <mxCell id="f-fRc35Enofzeq2nU37d-93" style="edgeStyle=orthogonalEdgeStyle;rounded=0;orthogonalLoop=1;jettySize=auto;html=1;exitX=0.75;exitY=0.5;exitDx=0;exitDy=0;exitPerimeter=0;" edge="1" parent="1" source="f-fRc35Enofzeq2nU37d-71" target="f-fRc35Enofzeq2nU37d-94">
          <mxGeometry relative="1" as="geometry">
            <mxPoint x="-410" y="-660" as="targetPoint" />
          </mxGeometry>
        </mxCell>
        <mxCell id="f-fRc35Enofzeq2nU37d-71" value="" style="shape=line;html=1;strokeWidth=6;strokeColor=#ff0000;" vertex="1" parent="1">
          <mxGeometry x="-790" y="-820" width="400" height="10" as="geometry" />
        </mxCell>
        <mxCell id="f-fRc35Enofzeq2nU37d-96" style="edgeStyle=orthogonalEdgeStyle;rounded=0;orthogonalLoop=1;jettySize=auto;html=1;exitX=0.5;exitY=1;exitDx=0;exitDy=0;" edge="1" parent="1" source="f-fRc35Enofzeq2nU37d-81">
          <mxGeometry relative="1" as="geometry">
            <mxPoint x="-740" y="-520" as="targetPoint" />
          </mxGeometry>
        </mxCell>
        <mxCell id="f-fRc35Enofzeq2nU37d-81" value="Visualiza Animais Para adoÃ§Ã£o&amp;nbsp;" style="rounded=1;whiteSpace=wrap;html=1;arcSize=40;fontColor=#000000;fillColor=#ffffc0;strokeColor=#ff0000;" vertex="1" parent="1">
          <mxGeometry x="-810" y="-680" width="120" height="40" as="geometry" />
        </mxCell>
        <mxCell id="f-fRc35Enofzeq2nU37d-90" value="" style="endArrow=open;endFill=1;endSize=12;html=1;rounded=0;" edge="1" parent="1">
          <mxGeometry width="160" relative="1" as="geometry">
            <mxPoint x="-270" y="-980" as="sourcePoint" />
            <mxPoint x="-110" y="-980" as="targetPoint" />
          </mxGeometry>
        </mxCell>
        <mxCell id="f-fRc35Enofzeq2nU37d-92" value="Consultar Catalogo de Produtos" style="rounded=1;whiteSpace=wrap;html=1;arcSize=40;fontColor=#000000;fillColor=#ffffc0;strokeColor=#ff0000;" vertex="1" parent="1">
          <mxGeometry x="-630" y="-700" width="120" height="40" as="geometry" />
        </mxCell>
        <mxCell id="f-fRc35Enofzeq2nU37d-94" value="Activity" style="rounded=1;whiteSpace=wrap;html=1;arcSize=40;fontColor=#000000;fillColor=#ffffc0;strokeColor=#ff0000;" vertex="1" parent="1">
          <mxGeometry x="-440" y="-710" width="120" height="40" as="geometry" />
        </mxCell>
        <mxCell id="f-fRc35Enofzeq2nU37d-98" style="edgeStyle=orthogonalEdgeStyle;rounded=0;orthogonalLoop=1;jettySize=auto;html=1;exitX=0.75;exitY=1;exitDx=0;exitDy=0;entryX=0.5;entryY=1;entryDx=0;entryDy=0;" edge="1" parent="1" source="f-fRc35Enofzeq2nU37d-43" target="f-fRc35Enofzeq2nU37d-43">
          <mxGeometry relative="1" as="geometry" />
        </mxCell>
      </root>
    </mxGraphModel>
  </diagram>
</mxfile>
